<?xml version="1.0" standalone="no"?>
<!DOCTYPE svg PUBLIC "-//W3C//DTD SVG 20010904//EN"
 "http://www.w3.org/TR/2001/REC-SVG-20010904/DTD/svg10.dtd">
<svg version="1.0" xmlns="http://www.w3.org/2000/svg"
 width="1024.000000pt" height="768.000000pt" viewBox="0 0 1024.000000 768.000000"
 preserveAspectRatio="xMidYMid meet">

<g transform="translate(0.000000,768.000000) scale(0.100000,-0.100000)"
fill="#000000" stroke="none">
<path d="M6829 4588 c-6 -11 -21 -51 -34 -87 -22 -67 -28 -73 -98 -100 -28
-11 -29 -13 -22 -63 4 -29 14 -70 21 -92 8 -21 14 -49 14 -62 0 -13 3 -24 7
-24 4 0 44 37 88 83 44 45 97 96 118 114 l38 31 -19 39 c-11 21 -25 62 -31 91
-6 30 -16 62 -21 73 -14 25 -47 24 -61 -3z"/>
<path d="M2990 4573 c-32 -6 -130 -30 -198 -50 -39 -11 -52 -19 -50 -31 3 -14
16 -16 90 -13 105 3 153 -15 174 -66 26 -60 3 -122 -113 -315 -83 -139 -106
-202 -107 -298 -1 -60 4 -84 23 -120 132 -253 556 -388 1151 -366 519 20 933
82 1465 221 175 46 704 167 894 205 524 104 919 141 1032 97 80 -31 94 -108
27 -140 -21 -9 -38 -21 -38 -27 0 -14 31 -28 51 -23 16 5 19 -1 19 -35 0 -23
4 -43 9 -46 27 -17 104 94 125 178 l7 29 16 -23 c14 -20 15 -32 5 -89 -11 -65
-5 -90 17 -77 6 4 11 16 11 27 0 27 16 57 56 102 52 57 45 76 -53 135 -161 97
-238 115 -498 115 -351 1 -720 -65 -1552 -278 -344 -89 -648 -144 -1153 -212
-176 -23 -240 -27 -455 -27 -197 0 -270 3 -345 17 -462 86 -684 300 -561 540
18 34 61 98 97 142 130 160 164 214 164 262 0 128 -130 197 -310 166z"/>
<path d="M3656 4535 c-68 -36 -294 -247 -368 -344 -27 -36 -63 -94 -81 -130
-28 -57 -32 -76 -32 -141 0 -62 5 -84 27 -126 57 -109 188 -192 378 -238 328
-80 741 -52 1429 95 269 57 261 55 631 144 562 134 770 193 938 267 98 44 103
50 85 116 -5 22 -9 23 -51 17 -66 -10 -445 -122 -757 -224 -388 -128 -798
-228 -1145 -280 -699 -105 -1233 9 -1258 268 -8 85 28 142 190 301 151 150
152 152 117 230 -29 64 -49 73 -103 45z"/>
<path d="M4034 4472 c-122 -80 -260 -197 -311 -263 -110 -144 -112 -265 -4
-362 51 -46 93 -64 206 -88 308 -64 900 -9 1390 130 257 73 1039 332 1210 401
l90 36 3 48 3 48 -43 -7 c-61 -11 -238 -73 -488 -172 -518 -204 -657 -248
-960 -297 -272 -44 -356 -51 -605 -50 -206 0 -254 3 -340 22 -177 38 -280 109
-292 201 -10 73 44 167 172 300 125 129 113 148 -31 53z"/>
<path d="M2580 4435 c-15 -18 -15 -19 33 -38 48 -21 61 -53 54 -140 -6 -64
-17 -101 -119 -386 -62 -173 -67 -304 -17 -409 31 -64 130 -160 209 -204 257
-140 601 -196 1100 -177 556 21 1044 111 1622 298 205 67 269 81 548 115 412
52 694 58 1015 22 72 -8 180 -17 241 -21 130 -8 144 -1 128 63 -10 43 22 35
-329 79 -179 23 -260 28 -435 28 -226 0 -259 -4 -613 -61 -205 -33 -307 -59
-582 -144 -351 -109 -832 -203 -1179 -230 -166 -13 -529 -13 -676 0 -342 31
-625 133 -757 273 -121 128 -130 234 -42 504 22 67 46 157 55 199 13 69 13 84
-1 129 -16 57 -34 77 -88 100 -48 20 -150 20 -167 0z"/>
<path d="M7380 4410 c-36 -9 -83 -25 -105 -34 -28 -11 -76 -17 -151 -19 l-110
-2 -58 -40 c-96 -66 -174 -143 -216 -214 -40 -68 -47 -94 -31 -120 8 -13 18
-12 68 3 32 9 92 23 133 31 41 8 113 25 159 40 47 14 116 30 155 36 49 8 85
20 116 41 42 28 50 29 115 25 49 -3 86 -12 125 -32 51 -25 59 -26 99 -15 44
12 91 51 91 77 0 26 -52 62 -133 94 -155 59 -226 56 -363 -15 -48 -25 -93 -46
-101 -46 -7 0 -55 -29 -106 -64 -67 -46 -118 -72 -178 -91 -46 -14 -94 -36
-107 -47 -36 -34 -45 -10 -18 47 24 50 40 68 108 118 57 42 53 18 -8 -51 -31
-34 -53 -62 -50 -62 12 0 145 77 202 117 33 23 101 57 150 74 49 17 130 51
179 76 50 25 101 50 114 57 14 6 25 16 25 21 1 16 -34 14 -104 -5z m-195 -280
c-63 -26 -216 -67 -203 -54 21 21 147 64 188 63 28 0 31 -2 15 -9z"/>
</g>
</svg>
